<svg xmlns="http://www.w3.org/2000/svg" width="18.984" height="21" viewBox="0 0 18.984 21"><defs><style>.a{fill:none;}.a,.b,.c{stroke:#fff;}.b{fill:#fff;}.c{fill:#fa6161;stroke-miterlimit:10;}</style></defs><g transform="translate(0.484 0.5)"><path class="a" d="M15.893,16.869l-1.369-2.385a7.326,7.326,0,0,1-.967-3.645V8.75A5.813,5.813,0,0,0,9.57,3.162v-1.5a1.6,1.6,0,1,0-3.19,0v1.5A5.813,5.813,0,0,0,2.392,8.75v2.089a7.331,7.331,0,0,1-.966,3.644L.057,16.868a.432.432,0,0,0,0,.42A.4.4,0,0,0,.4,17.5H15.551a.4.4,0,0,0,.347-.211A.434.434,0,0,0,15.893,16.869Z" transform="translate(0.025)"/><path class="b" d="M0,0A2.782,2.782,0,0,0,2.511,1.667,2.782,2.782,0,0,0,5.023,0H0Z" transform="translate(5.488 18.333)"/><circle class="c" cx="4" cy="4" r="4" transform="translate(10 2)"/></g></svg>