<svg xmlns="http://www.w3.org/2000/svg" width="20" height="13.965" viewBox="0 0 20 13.965"><defs><style>.a{fill:#fff;}</style></defs><g transform="translate(0 -0.017)"><path class="a" d="M19.192,0H.808a.813.813,0,0,0,0,1.627H19.192a.813.813,0,0,0,0-1.627Z" transform="translate(0 6.187)"/><path class="a" d="M19.192,0H.808a.813.813,0,0,0,0,1.627H19.192a.813.813,0,0,0,0-1.627Z" transform="translate(0 0.017)"/><path class="a" d="M13.549,0H.57C.255,0,0,.364,0,.813s.255.813.57.813H13.549c.315,0,.57-.364.57-.813S13.864,0,13.549,0Z" transform="translate(0 12.356)"/></g></svg>